<svg xmlns="http://www.w3.org/2000/svg" width="256" height="256" viewBox="0 0 100 100"><rect width="100" height="100" rx="20" fill="#ffffff"></rect><path d="M39.20 82.73L25.36 82.73L25.36 17.27L51.18 17.27Q58.63 17.27 63.87 20.10Q69.11 22.93 71.88 27.93Q74.64 32.93 74.64 39.45L74.64 39.45Q74.64 45.97 71.83 50.96Q69.02 55.94 63.69 58.73Q58.37 61.51 50.83 61.51L50.83 61.51L34.37 61.51L34.37 50.42L48.59 50.42Q52.59 50.42 55.19 49.03Q57.80 47.63 59.09 45.16Q60.39 42.68 60.39 39.45L60.39 39.45Q60.39 36.19 59.09 33.75Q57.80 31.30 55.18 29.94Q52.56 28.59 48.53 28.59L48.53 28.59L39.20 28.59L39.20 82.73Z" fill="#000000"></path></svg>